<?xml version="1.0" standalone="no"?><!DOCTYPE svg PUBLIC "-//W3C//DTD SVG 1.1//EN" "http://www.w3.org/Graphics/SVG/1.1/DTD/svg11.dtd"><svg t="1585322430556" class="icon" viewBox="0 0 1024 1024" version="1.1" xmlns="http://www.w3.org/2000/svg" p-id="3048" xmlns:xlink="http://www.w3.org/1999/xlink" width="200" height="200"><defs><style type="text/css"></style></defs><path d="M502.496 63.136c125.888 0 227.936 100.384 227.936 224.192 0 123.84-102.048 224.224-227.936 224.224S274.56 411.168 274.56 287.328c0-123.84 102.08-224.192 227.936-224.192z m0 0c125.888 0 227.936 100.384 227.936 224.192 0 123.84-102.048 224.224-227.936 224.224S274.56 411.168 274.56 287.328c0-123.84 102.08-224.192 227.936-224.192z m-85.472 523.168h189.984c162.624 0 294.432 129.632 294.432 289.6v18.656c0 63.04-131.84 65.44-294.432 65.44H417.024c-162.624 0-294.432-0.096-294.432-65.44v-18.656c0-159.968 131.808-289.6 294.432-289.6z m0 0" p-id="3049" fill="#dbdbdb"></path></svg>